<?xml version="1.0" encoding="UTF-8" ?>
<!DOCTYPE svg PUBLIC "-//W3C//DTD SVG 1.1//EN" "http://www.w3.org/Graphics/SVG/1.1/DTD/svg11.dtd">
<svg width="170pt" height="175pt" viewBox="0 0 170 175" version="1.1" xmlns="http://www.w3.org/2000/svg">
<path fill="#fcf7f7" opacity="1.00" d=" M 29.28 0.00 L 32.25 0.00 C 40.25 0.40 47.78 4.85 52.14 11.54 C 56.22 18.03 57.18 26.39 54.50 33.59 C 51.52 41.94 43.78 48.33 35.02 49.68 C 27.50 50.99 19.55 48.48 13.95 43.33 C 6.37 36.36 3.82 24.60 8.01 15.16 C 11.55 6.64 20.11 0.68 29.28 0.00 M 25.46 2.71 C 15.81 4.95 8.41 14.05 8.03 23.93 C 7.47 33.71 13.89 43.37 23.16 46.58 C 30.89 49.52 40.09 47.71 46.21 42.19 C 52.96 36.35 55.75 26.38 52.84 17.92 C 49.48 6.75 36.74 -0.42 25.46 2.71 Z" />
<path fill="#b42416" opacity="1.00" d=" M 25.46 2.71 C 36.74 -0.42 49.48 6.75 52.84 17.92 C 55.75 26.38 52.96 36.35 46.21 42.19 C 40.09 47.71 30.89 49.52 23.16 46.58 C 13.89 43.37 7.47 33.71 8.03 23.93 C 8.41 14.05 15.81 4.95 25.46 2.71 M 28.10 22.89 C 28.97 22.69 30.71 22.28 31.57 22.07 C 31.50 25.38 31.50 28.69 31.52 32.00 C 32.10 32.00 33.25 32.00 33.83 32.00 C 33.83 27.63 33.81 23.25 33.86 18.87 C 31.82 19.93 28.28 19.94 28.10 22.89 Z" />
<path fill="#b42416" opacity="1.00" d=" M 52.14 11.54 C 69.43 4.41 89.05 3.01 107.13 7.93 C 126.95 13.20 144.62 25.99 155.89 43.12 C 164.38 55.78 169.08 70.78 170.00 85.96 L 170.00 93.75 C 169.01 113.33 161.28 132.54 148.02 147.03 C 132.94 163.88 110.92 174.07 88.35 175.00 L 81.26 175.00 C 62.12 174.03 43.35 166.65 28.99 153.92 C 11.70 138.97 1.18 116.80 0.00 94.02 L 0.00 86.26 C 0.84 71.06 5.53 56.05 13.95 43.33 C 19.55 48.48 27.50 50.99 35.02 49.68 C 43.78 48.33 51.52 41.94 54.50 33.59 C 57.18 26.39 56.22 18.03 52.14 11.54 M 62.46 57.03 C 62.45 61.75 62.45 66.46 62.48 71.18 C 55.99 71.21 49.50 71.15 43.01 71.21 C 43.02 86.65 43.03 102.09 43.00 117.53 C 49.51 117.59 56.02 117.51 62.53 117.58 C 62.50 119.36 62.45 121.15 62.42 122.94 C 77.85 123.03 93.28 123.04 108.70 122.94 C 108.69 121.14 108.64 119.34 108.62 117.55 C 115.08 117.54 121.54 117.58 128.00 117.53 C 127.99 102.09 127.99 86.65 127.99 71.21 C 121.54 71.15 115.09 71.21 108.65 71.18 C 108.67 66.47 108.65 61.76 108.69 57.06 C 93.28 56.97 77.87 57.02 62.46 57.03 Z" />
<path fill="#fcf7f7" opacity="1.00" d=" M 28.10 22.89 C 28.28 19.94 31.82 19.93 33.86 18.87 C 33.81 23.25 33.83 27.63 33.83 32.00 C 33.25 32.00 32.10 32.00 31.52 32.00 C 31.50 28.69 31.50 25.38 31.57 22.07 C 30.71 22.28 28.97 22.69 28.10 22.89 Z" />
<path fill="#fcf7f7" opacity="1.00" d=" M 62.46 57.03 C 77.87 57.02 93.28 56.97 108.69 57.06 C 108.65 61.76 108.67 66.47 108.65 71.18 C 115.09 71.21 121.54 71.15 127.99 71.21 C 127.99 86.65 127.99 102.09 128.00 117.53 C 121.54 117.58 115.08 117.54 108.62 117.55 C 108.64 119.34 108.69 121.14 108.70 122.94 C 93.28 123.04 77.85 123.03 62.42 122.94 C 62.45 121.15 62.50 119.36 62.53 117.58 C 56.02 117.51 49.51 117.59 43.00 117.53 C 43.03 102.09 43.02 86.65 43.01 71.21 C 49.50 71.15 55.99 71.21 62.48 71.18 C 62.45 66.46 62.45 61.75 62.46 57.03 M 65.06 59.71 C 65.07 61.61 65.05 63.51 65.03 65.42 C 78.77 65.48 92.52 65.40 106.26 65.44 C 106.22 63.52 106.18 61.59 106.14 59.67 C 92.44 59.70 78.75 59.59 65.06 59.71 M 65.01 68.17 C 65.07 72.05 65.07 75.94 65.02 79.82 C 78.72 79.96 92.43 79.86 106.14 79.89 C 106.17 75.97 106.21 72.06 106.24 68.15 C 92.50 68.16 78.76 68.11 65.01 68.17 M 45.51 73.70 C 45.54 75.75 45.57 77.80 45.60 79.85 C 51.20 80.01 56.81 80.00 62.42 79.88 C 62.44 77.82 62.47 75.76 62.51 73.70 C 56.84 73.67 51.18 73.67 45.51 73.70 M 108.63 73.69 C 108.65 75.75 108.66 77.80 108.68 79.85 C 114.32 80.02 119.98 80.11 125.62 79.79 C 125.61 77.76 125.61 75.73 125.63 73.70 C 119.97 73.67 114.30 73.68 108.63 73.69 M 45.51 82.57 C 45.62 93.32 45.55 104.08 45.55 114.83 C 51.19 114.85 56.84 114.85 62.48 114.83 C 62.47 104.08 62.39 93.32 62.52 82.57 C 56.85 82.54 51.18 82.54 45.51 82.57 M 65.01 82.57 C 65.09 87.32 65.07 92.07 65.02 96.82 C 78.76 96.88 92.50 96.82 106.24 96.85 C 106.24 92.08 106.22 87.31 106.25 82.54 C 92.50 82.58 78.76 82.52 65.01 82.57 M 108.63 82.55 C 108.69 93.31 108.66 104.07 108.65 114.83 C 114.31 114.84 119.97 114.88 125.63 114.81 C 125.62 104.11 125.41 93.40 125.74 82.70 C 120.04 82.37 114.33 82.64 108.63 82.55 M 65.02 99.38 C 65.31 106.39 64.62 113.63 65.40 120.50 C 78.98 120.78 92.58 120.61 106.17 120.53 C 106.15 113.48 106.19 106.43 106.26 99.38 C 92.51 99.33 78.76 99.34 65.02 99.38 Z" />
<path fill="#b42416" opacity="1.00" d=" M 65.06 59.71 C 78.75 59.59 92.44 59.70 106.14 59.67 C 106.18 61.59 106.22 63.52 106.26 65.44 C 92.52 65.40 78.77 65.48 65.03 65.42 C 65.05 63.51 65.07 61.61 65.06 59.71 M 68.74 61.38 C 68.73 61.96 68.71 63.14 68.70 63.72 C 69.64 63.70 70.58 63.67 71.52 63.62 C 71.50 63.07 71.46 61.96 71.43 61.41 C 70.54 61.40 69.64 61.39 68.74 61.38 M 73.76 61.37 C 73.75 61.96 73.74 63.15 73.73 63.74 C 74.69 63.70 75.65 63.66 76.61 63.61 C 76.58 63.06 76.53 61.96 76.51 61.41 C 75.59 61.40 74.67 61.39 73.76 61.37 M 79.15 61.19 C 79.08 61.84 78.94 63.15 78.87 63.81 C 79.59 63.76 81.04 63.66 81.76 63.61 C 81.78 63.10 81.81 62.07 81.83 61.55 C 81.16 61.46 79.82 61.28 79.15 61.19 Z" />
<path fill="#fcf7f7" opacity="1.00" d=" M 68.74 61.38 C 69.64 61.39 70.54 61.40 71.43 61.41 C 71.46 61.96 71.50 63.07 71.52 63.62 C 70.58 63.67 69.64 63.70 68.70 63.72 C 68.71 63.14 68.73 61.96 68.74 61.38 Z" />
<path fill="#fcf7f7" opacity="1.00" d=" M 73.76 61.37 C 74.67 61.39 75.59 61.40 76.51 61.41 C 76.53 61.96 76.58 63.06 76.61 63.61 C 75.65 63.66 74.69 63.70 73.73 63.74 C 73.74 63.15 73.75 61.96 73.76 61.37 Z" />
<path fill="#fcf7f7" opacity="1.00" d=" M 79.15 61.19 C 79.82 61.28 81.16 61.46 81.83 61.55 C 81.81 62.07 81.78 63.10 81.76 63.61 C 81.04 63.66 79.59 63.76 78.87 63.81 C 78.94 63.15 79.08 61.84 79.15 61.19 Z" />
<path fill="#b42416" opacity="1.00" d=" M 65.01 68.17 C 78.76 68.11 92.50 68.16 106.24 68.15 C 106.21 72.06 106.17 75.97 106.14 79.89 C 92.43 79.86 78.72 79.96 65.02 79.82 C 65.07 75.94 65.07 72.05 65.01 68.17 M 81.83 70.49 C 81.85 71.12 81.87 72.38 81.89 73.01 C 84.35 73.01 86.81 73.01 89.28 73.01 C 89.32 72.39 89.40 71.16 89.44 70.54 C 86.90 70.47 84.37 70.46 81.83 70.49 M 74.73 74.97 C 74.66 75.60 74.53 76.86 74.46 77.49 C 81.84 77.49 89.22 77.46 96.60 77.51 C 96.56 76.64 96.51 75.77 96.48 74.90 C 89.23 75.06 81.97 74.88 74.73 74.97 Z" />
<path fill="#fcf7f7" opacity="1.00" d=" M 81.83 70.49 C 84.37 70.46 86.90 70.47 89.44 70.54 C 89.40 71.16 89.32 72.39 89.28 73.01 C 86.81 73.01 84.35 73.01 81.89 73.01 C 81.87 72.38 81.85 71.12 81.83 70.49 Z" />
<path fill="#b42416" opacity="1.00" d=" M 45.51 73.70 C 51.18 73.67 56.84 73.67 62.51 73.70 C 62.47 75.76 62.44 77.82 62.42 79.88 C 56.81 80.00 51.20 80.01 45.60 79.85 C 45.57 77.80 45.54 75.75 45.51 73.70 M 47.95 75.76 C 47.72 77.90 49.03 78.30 50.85 77.95 C 50.82 77.36 50.76 76.19 50.73 75.61 C 49.81 75.66 48.88 75.71 47.95 75.76 M 52.68 75.65 C 52.70 76.48 52.72 77.31 52.75 78.14 C 54.81 78.59 55.74 77.60 55.57 75.65 C 54.61 75.65 53.64 75.65 52.68 75.65 M 57.31 75.66 C 57.28 76.21 57.23 77.33 57.21 77.88 C 59.14 78.35 60.56 78.03 60.15 75.68 C 59.20 75.67 58.25 75.66 57.31 75.66 Z" />
<path fill="#b42416" opacity="1.00" d=" M 108.63 73.69 C 114.30 73.68 119.97 73.67 125.63 73.70 C 125.61 75.73 125.61 77.76 125.62 79.79 C 119.98 80.11 114.32 80.02 108.68 79.85 C 108.66 77.80 108.65 75.75 108.63 73.69 M 110.86 75.67 C 109.88 78.95 114.97 78.95 114.17 75.71 C 113.07 75.69 111.96 75.68 110.86 75.67 M 115.72 75.65 C 115.74 76.48 115.76 77.32 115.79 78.15 C 116.52 78.06 117.99 77.88 118.72 77.78 C 118.67 77.25 118.58 76.18 118.53 75.65 C 117.59 75.65 116.66 75.65 115.72 75.65 M 120.44 75.62 C 120.38 76.17 120.25 77.27 120.19 77.82 C 122.11 78.34 123.53 78.09 123.15 75.70 C 122.25 75.67 121.34 75.64 120.44 75.62 Z" />
<path fill="#fcf7f7" opacity="1.00" d=" M 47.95 75.76 C 48.88 75.71 49.81 75.66 50.73 75.61 C 50.76 76.19 50.82 77.36 50.85 77.95 C 49.03 78.30 47.72 77.90 47.95 75.76 Z" />
<path fill="#fcf7f7" opacity="1.00" d=" M 52.68 75.65 C 53.64 75.65 54.61 75.65 55.57 75.65 C 55.74 77.60 54.81 78.59 52.75 78.14 C 52.72 77.31 52.70 76.48 52.68 75.65 Z" />
<path fill="#fcf7f7" opacity="1.00" d=" M 57.31 75.66 C 58.25 75.66 59.20 75.67 60.15 75.68 C 60.56 78.03 59.14 78.35 57.21 77.88 C 57.23 77.33 57.28 76.21 57.31 75.66 Z" />
<path fill="#fcf7f7" opacity="1.00" d=" M 74.73 74.97 C 81.97 74.88 89.23 75.06 96.48 74.90 C 96.51 75.77 96.56 76.64 96.60 77.51 C 89.22 77.46 81.84 77.49 74.46 77.49 C 74.53 76.86 74.66 75.60 74.73 74.97 Z" />
<path fill="#fcf7f7" opacity="1.00" d=" M 110.86 75.67 C 111.96 75.68 113.07 75.69 114.17 75.71 C 114.97 78.95 109.88 78.95 110.86 75.67 Z" />
<path fill="#fcf7f7" opacity="1.00" d=" M 115.72 75.65 C 116.66 75.65 117.59 75.65 118.53 75.65 C 118.58 76.18 118.67 77.25 118.72 77.78 C 117.99 77.88 116.52 78.06 115.79 78.15 C 115.76 77.32 115.74 76.48 115.72 75.65 Z" />
<path fill="#fcf7f7" opacity="1.00" d=" M 120.44 75.62 C 121.34 75.64 122.25 75.67 123.15 75.70 C 123.53 78.09 122.11 78.34 120.19 77.82 C 120.25 77.27 120.38 76.17 120.44 75.62 Z" />
<path fill="#b42416" opacity="1.00" d=" M 45.51 82.57 C 51.18 82.54 56.85 82.54 62.52 82.57 C 62.39 93.32 62.47 104.08 62.48 114.83 C 56.84 114.85 51.19 114.85 45.55 114.83 C 45.55 104.08 45.62 93.32 45.51 82.57 Z" />
<path fill="#b42416" opacity="1.00" d=" M 65.01 82.57 C 78.76 82.52 92.50 82.58 106.25 82.54 C 106.22 87.31 106.24 92.08 106.24 96.85 C 92.50 96.82 78.76 96.88 65.02 96.82 C 65.07 92.07 65.09 87.32 65.01 82.57 M 71.09 89.79 C 72.54 91.13 73.97 92.50 75.37 93.89 C 76.04 93.30 76.71 92.70 77.38 92.10 C 76.47 91.24 75.56 90.38 74.70 89.48 C 75.37 88.97 76.71 87.96 77.38 87.45 C 76.74 86.75 76.09 86.05 75.44 85.37 C 73.98 86.84 72.54 88.31 71.09 89.79 M 93.76 87.19 C 94.66 88.08 95.57 88.97 96.47 89.87 C 95.52 90.61 94.58 91.35 93.64 92.09 C 94.19 92.55 95.29 93.47 95.85 93.92 C 97.25 92.50 98.68 91.11 100.14 89.74 C 98.66 88.30 97.21 86.85 95.78 85.37 C 95.11 85.98 94.44 86.59 93.76 87.19 Z" />
<path fill="#b42416" opacity="1.00" d=" M 108.63 82.55 C 114.33 82.64 120.04 82.37 125.74 82.70 C 125.41 93.40 125.62 104.11 125.63 114.81 C 119.97 114.88 114.31 114.84 108.65 114.83 C 108.66 104.07 108.69 93.31 108.63 82.55 Z" />
<path fill="#fcf7f7" opacity="1.00" d=" M 71.09 89.79 C 72.54 88.31 73.98 86.84 75.44 85.37 C 76.09 86.05 76.74 86.75 77.38 87.45 C 76.71 87.96 75.37 88.97 74.70 89.48 C 75.56 90.38 76.47 91.24 77.38 92.10 C 76.71 92.70 76.04 93.30 75.37 93.89 C 73.97 92.50 72.54 91.13 71.09 89.79 Z" />
<path fill="#fcf7f7" opacity="1.00" d=" M 93.76 87.19 C 94.44 86.59 95.11 85.98 95.78 85.37 C 97.21 86.85 98.66 88.30 100.14 89.74 C 98.68 91.11 97.25 92.50 95.85 93.92 C 95.29 93.47 94.19 92.55 93.64 92.09 C 94.58 91.35 95.52 90.61 96.47 89.87 C 95.57 88.97 94.66 88.08 93.76 87.19 Z" />
<path fill="#b42416" opacity="1.00" d=" M 65.02 99.38 C 78.76 99.34 92.51 99.33 106.26 99.38 C 106.19 106.43 106.15 113.48 106.17 120.53 C 92.58 120.61 78.98 120.78 65.40 120.50 C 64.62 113.63 65.31 106.39 65.02 99.38 M 70.91 101.90 C 70.90 105.73 70.91 109.57 70.90 113.41 C 74.81 113.42 78.71 113.43 82.62 113.40 C 82.54 109.59 82.54 105.78 82.61 101.97 C 78.71 101.82 74.81 101.89 70.91 101.90 M 88.58 101.89 C 88.58 105.72 88.60 109.56 88.54 113.40 C 92.43 113.43 96.32 113.42 100.22 113.41 C 100.20 109.57 100.21 105.73 100.20 101.89 C 96.33 101.88 92.45 101.88 88.58 101.89 M 70.79 115.57 C 70.84 116.15 70.94 117.30 71.00 117.88 C 74.78 118.17 78.58 118.08 82.36 117.98 C 82.47 117.39 82.69 116.19 82.80 115.60 C 78.80 115.52 74.79 115.54 70.79 115.57 M 88.38 115.59 C 88.47 116.19 88.66 117.38 88.75 117.98 C 92.55 118.14 96.37 117.99 100.17 118.04 C 100.19 117.42 100.24 116.18 100.26 115.57 C 96.30 115.55 92.34 115.53 88.38 115.59 Z" />
<path fill="#fcf7f7" opacity="1.00" d=" M 70.91 101.90 C 74.81 101.89 78.71 101.82 82.61 101.97 C 82.54 105.78 82.54 109.59 82.62 113.40 C 78.71 113.43 74.81 113.42 70.90 113.41 C 70.91 109.57 70.90 105.73 70.91 101.90 M 73.42 104.42 C 73.45 106.53 73.46 108.63 73.45 110.74 C 75.68 110.75 77.90 110.75 80.13 110.75 C 80.13 108.62 80.13 106.50 80.12 104.37 C 77.89 104.37 75.65 104.39 73.42 104.42 Z" />
<path fill="#fcf7f7" opacity="1.00" d=" M 88.58 101.89 C 92.45 101.88 96.33 101.88 100.20 101.89 C 100.21 105.73 100.20 109.57 100.22 113.41 C 96.32 113.42 92.43 113.43 88.54 113.40 C 88.60 109.56 88.58 105.72 88.58 101.89 M 91.02 104.39 C 91.03 106.51 91.03 108.62 91.02 110.74 C 93.29 110.76 95.55 110.75 97.82 110.69 C 97.78 108.61 97.78 106.53 97.85 104.45 C 95.58 104.39 93.30 104.37 91.02 104.39 Z" />
<path fill="#b42416" opacity="1.00" d=" M 73.42 104.42 C 75.65 104.39 77.89 104.37 80.12 104.37 C 80.13 106.50 80.13 108.62 80.13 110.75 C 77.90 110.75 75.68 110.75 73.45 110.74 C 73.46 108.63 73.45 106.53 73.42 104.42 Z" />
<path fill="#b42416" opacity="1.00" d=" M 91.02 104.39 C 93.30 104.37 95.58 104.39 97.85 104.45 C 97.78 106.53 97.78 108.61 97.82 110.69 C 95.55 110.75 93.29 110.76 91.02 110.74 C 91.03 108.62 91.03 106.51 91.02 104.39 Z" />
<path fill="#fcf7f7" opacity="1.00" d=" M 70.79 115.57 C 74.79 115.54 78.80 115.52 82.80 115.60 C 82.69 116.19 82.47 117.39 82.36 117.98 C 78.58 118.08 74.78 118.17 71.00 117.88 C 70.94 117.30 70.84 116.15 70.79 115.57 Z" />
<path fill="#fcf7f7" opacity="1.00" d=" M 88.38 115.59 C 92.34 115.53 96.30 115.55 100.26 115.57 C 100.24 116.18 100.19 117.42 100.17 118.04 C 96.37 117.99 92.55 118.14 88.75 117.98 C 88.66 117.38 88.47 116.19 88.38 115.59 Z" />
</svg>
