<?xml version="1.0" encoding="UTF-8" ?>
<!DOCTYPE svg PUBLIC "-//W3C//DTD SVG 1.1//EN" "http://www.w3.org/Graphics/SVG/1.1/DTD/svg11.dtd">
<svg width="170pt" height="175pt" viewBox="0 0 120 124" version="1.1" xmlns="http://www.w3.org/2000/svg">
<path fill="#f9f0ef" opacity="1.00" d=" M 19.45 0.00 L 23.42 0.00 C 28.90 0.74 33.83 3.98 36.73 8.67 C 40.86 15.81 39.28 25.63 32.84 30.87 C 26.51 36.48 16.32 36.29 9.98 30.80 C 4.90 26.21 2.56 18.68 4.84 12.13 C 6.79 5.64 12.83 0.96 19.45 0.00 M 17.45 2.55 C 9.45 4.56 4.13 13.64 6.57 21.59 C 8.62 29.79 18.12 35.11 26.16 32.27 C 34.10 29.93 39.05 20.59 36.23 12.75 C 33.92 5.12 25.14 0.23 17.45 2.55 Z" />
<path fill="#b42416" opacity="1.00" d=" M 17.45 2.55 C 25.14 0.23 33.92 5.12 36.23 12.75 C 39.05 20.59 34.10 29.93 26.16 32.27 C 18.12 35.11 8.62 29.79 6.57 21.59 C 4.13 13.64 9.45 4.56 17.45 2.55 M 19.03 17.01 C 20.25 16.20 21.25 14.76 22.89 15.02 C 23.94 18.44 19.75 20.28 18.33 22.95 C 20.64 23.02 22.96 23.01 25.27 23.01 L 25.16 21.99 C 24.14 21.99 22.10 22.00 21.08 22.00 C 22.42 20.12 24.80 18.54 24.90 16.05 C 24.43 12.72 17.83 13.38 19.03 17.01 Z" />
<path fill="#b42416" opacity="1.00" d=" M 36.73 8.67 C 56.17 0.38 79.87 3.34 96.52 16.41 C 110.24 26.78 118.83 43.27 120.00 60.39 L 120.00 67.53 C 118.97 82.03 112.81 96.17 102.43 106.41 C 92.20 116.80 78.08 122.95 63.59 124.00 L 56.43 124.00 C 41.70 122.94 27.36 116.59 17.09 105.92 C 7.01 95.75 1.05 81.87 0.00 67.63 L 0.00 60.48 C 0.80 49.95 4.16 39.64 9.98 30.80 C 16.32 36.29 26.51 36.48 32.84 30.87 C 39.28 25.63 40.86 15.81 36.73 8.67 M 43.71 45.04 C 43.87 45.50 44.21 46.42 44.37 46.88 C 46.97 46.56 51.61 48.42 52.45 45.02 C 49.53 44.98 46.62 44.97 43.71 45.04 M 67.27 46.89 C 66.06 48.24 68.39 50.13 69.49 48.72 C 70.71 47.36 68.39 45.46 67.27 46.89 M 71.06 47.01 C 70.58 48.67 71.13 49.20 72.73 48.62 C 73.23 46.96 72.67 46.43 71.06 47.01 M 74.23 47.00 C 73.71 48.62 74.27 49.18 75.89 48.68 C 76.41 47.05 75.86 46.49 74.23 47.00 M 77.49 47.02 C 77.04 48.67 77.61 49.21 79.19 48.65 C 79.64 46.98 79.08 46.44 77.49 47.02 M 81.05 47.00 C 80.55 48.66 81.10 49.20 82.70 48.63 C 83.20 46.97 82.65 46.43 81.05 47.00 M 84.26 46.97 C 83.76 48.58 84.32 49.14 85.94 48.66 C 86.45 47.04 85.89 46.48 84.26 46.97 M 48.08 48.09 L 46.79 49.30 C 51.69 50.07 56.69 49.80 61.62 49.66 C 61.83 49.22 62.24 48.34 62.44 47.90 C 57.66 47.95 52.83 47.51 48.08 48.09 M 67.25 50.26 C 66.09 51.74 68.61 53.41 69.58 51.86 C 70.68 50.41 68.19 48.69 67.25 50.26 M 84.27 50.31 C 83.70 51.90 84.26 52.45 85.92 51.96 C 86.48 50.36 85.93 49.81 84.27 50.31 M 37.06 56.94 C 34.71 56.93 32.36 56.92 30.01 56.92 C 29.99 60.89 29.99 64.86 30.00 68.82 C 32.51 68.93 35.03 68.98 37.54 69.06 C 37.46 72.57 37.47 76.08 37.54 79.58 C 36.09 79.63 34.64 79.67 33.19 79.70 C 33.31 81.65 33.23 84.95 35.95 84.97 C 50.98 85.01 66.02 85.07 81.05 84.93 C 83.83 84.84 83.15 81.54 83.45 79.67 C 82.05 79.66 80.65 79.64 79.26 79.63 C 79.27 71.74 79.39 63.84 79.19 55.96 C 79.40 54.13 77.39 53.60 75.98 53.78 C 63.98 53.74 51.98 53.67 39.98 53.77 C 38.02 53.48 37.73 55.64 37.06 56.94 M 84.18 53.84 C 83.70 55.43 84.28 55.96 85.93 55.43 C 86.42 53.82 85.84 53.29 84.18 53.84 M 84.28 57.13 C 83.81 58.76 84.38 59.30 85.99 58.76 C 86.47 57.11 85.90 56.57 84.28 57.13 M 84.23 60.39 C 83.69 61.98 84.26 62.51 85.93 61.98 C 86.45 60.38 85.88 59.85 84.23 60.39 M 81.07 63.93 C 80.55 65.57 81.09 66.13 82.70 65.59 C 83.23 63.95 82.69 63.39 81.07 63.93 M 84.22 63.97 C 83.72 65.56 84.29 66.11 85.93 65.62 C 86.44 64.01 85.87 63.46 84.22 63.97 M 81.45 68.34 C 82.54 71.21 83.27 74.23 84.78 76.92 C 85.26 76.49 86.23 75.64 86.71 75.22 C 87.20 75.56 88.17 76.24 88.66 76.58 C 90.67 76.58 88.65 74.40 88.18 73.55 C 88.67 73.07 89.65 72.11 90.14 71.62 C 87.28 70.44 84.36 69.38 81.45 68.34 Z" />
<path fill="#f9f0ef" opacity="1.00" d=" M 19.03 17.01 C 17.83 13.38 24.43 12.72 24.90 16.05 C 24.80 18.54 22.42 20.12 21.08 22.00 C 22.10 22.00 24.14 21.99 25.16 21.99 L 25.27 23.01 C 22.96 23.01 20.64 23.02 18.33 22.95 C 19.75 20.28 23.94 18.44 22.89 15.02 C 21.25 14.76 20.25 16.20 19.03 17.01 Z" />
<path fill="#f9f0ef" opacity="1.00" d=" M 43.71 45.04 C 46.62 44.97 49.53 44.98 52.45 45.02 C 51.61 48.42 46.97 46.56 44.37 46.88 C 44.21 46.42 43.87 45.50 43.71 45.04 Z" />
<path fill="#f9f0ef" opacity="1.00" d=" M 67.27 46.89 C 68.39 45.46 70.71 47.36 69.49 48.72 C 68.39 50.13 66.06 48.24 67.27 46.89 Z" />
<path fill="#f9f0ef" opacity="1.00" d=" M 71.06 47.01 C 72.67 46.43 73.23 46.96 72.73 48.62 C 71.13 49.20 70.58 48.67 71.06 47.01 Z" />
<path fill="#f9f0ef" opacity="1.00" d=" M 74.23 47.00 C 75.86 46.49 76.41 47.05 75.89 48.68 C 74.27 49.18 73.71 48.62 74.23 47.00 Z" />
<path fill="#f9f0ef" opacity="1.00" d=" M 77.49 47.02 C 79.08 46.44 79.64 46.98 79.19 48.65 C 77.61 49.21 77.04 48.67 77.49 47.02 Z" />
<path fill="#f9f0ef" opacity="1.00" d=" M 81.05 47.00 C 82.65 46.43 83.20 46.97 82.70 48.63 C 81.10 49.20 80.55 48.66 81.05 47.00 Z" />
<path fill="#f9f0ef" opacity="1.00" d=" M 84.26 46.97 C 85.89 46.48 86.45 47.04 85.94 48.66 C 84.32 49.14 83.76 48.58 84.26 46.97 Z" />
<path fill="#f9f0ef" opacity="1.00" d=" M 48.08 48.09 C 52.83 47.51 57.66 47.95 62.44 47.90 C 62.24 48.34 61.83 49.22 61.62 49.66 C 56.69 49.80 51.69 50.07 46.79 49.30 L 48.08 48.09 Z" />
<path fill="#f9f0ef" opacity="1.00" d=" M 67.25 50.26 C 68.19 48.69 70.68 50.41 69.58 51.86 C 68.61 53.41 66.09 51.74 67.25 50.26 Z" />
<path fill="#f9f0ef" opacity="1.00" d=" M 84.27 50.31 C 85.93 49.81 86.48 50.36 85.92 51.96 C 84.26 52.45 83.70 51.90 84.27 50.31 Z" />
<path fill="#f9f0ef" opacity="1.00" d=" M 37.06 56.94 C 37.73 55.64 38.02 53.48 39.98 53.77 C 51.98 53.67 63.98 53.74 75.98 53.78 C 77.39 53.60 79.40 54.13 79.19 55.96 C 79.39 63.84 79.27 71.74 79.26 79.63 C 80.65 79.64 82.05 79.66 83.45 79.67 C 83.15 81.54 83.83 84.84 81.05 84.93 C 66.02 85.07 50.98 85.01 35.95 84.97 C 33.23 84.95 33.31 81.65 33.19 79.70 C 34.64 79.67 36.09 79.63 37.54 79.58 C 37.47 76.08 37.46 72.57 37.54 69.06 C 35.03 68.98 32.51 68.93 30.00 68.82 C 29.99 64.86 29.99 60.89 30.01 56.92 C 32.36 56.92 34.71 56.93 37.06 56.94 M 38.64 56.74 C 51.07 57.34 63.53 56.81 75.98 57.03 C 76.17 64.77 75.69 72.54 76.28 80.28 C 77.97 79.44 77.47 77.50 77.55 75.99 C 77.40 69.22 77.68 62.45 77.33 55.69 C 66.23 55.31 55.12 55.61 44.03 55.50 C 42.20 55.67 39.90 54.99 38.64 56.74 M 31.89 58.89 C 31.90 61.59 31.90 64.29 31.90 66.99 C 36.57 67.01 41.25 66.99 45.92 66.95 C 45.90 64.26 45.92 61.58 45.96 58.90 C 41.27 58.84 36.58 58.83 31.89 58.89 M 47.81 58.89 C 47.82 62.18 47.83 65.47 47.82 68.76 C 46.06 68.87 44.31 68.95 42.55 69.04 C 42.59 72.55 42.59 76.06 42.50 79.57 C 53.10 79.66 63.71 79.73 74.31 79.47 C 74.11 72.62 74.24 65.78 74.21 58.93 C 65.41 58.90 56.61 58.76 47.81 58.89 M 39.13 69.00 C 39.22 72.35 39.03 75.70 39.19 79.04 C 39.56 79.34 40.31 79.95 40.68 80.25 C 41.03 76.50 40.85 72.73 40.93 68.98 C 40.48 68.98 39.58 68.99 39.13 69.00 M 34.64 82.86 C 48.75 83.38 62.89 82.96 77.01 83.09 C 78.76 82.89 81.21 83.64 82.04 81.56 C 67.69 81.33 53.33 81.60 38.98 81.44 C 37.45 81.60 35.28 80.90 34.64 82.86 Z" />
<path fill="#f9f0ef" opacity="1.00" d=" M 84.18 53.84 C 85.84 53.29 86.42 53.82 85.93 55.43 C 84.28 55.96 83.70 55.43 84.18 53.84 Z" />
<path fill="#b42416" opacity="1.00" d=" M 38.64 56.74 C 39.90 54.99 42.20 55.67 44.03 55.50 C 55.12 55.61 66.23 55.31 77.33 55.69 C 77.68 62.45 77.40 69.22 77.55 75.99 C 77.47 77.50 77.97 79.44 76.28 80.28 C 75.69 72.54 76.17 64.77 75.98 57.03 C 63.53 56.81 51.07 57.34 38.64 56.74 Z" />
<path fill="#f9f0ef" opacity="1.00" d=" M 84.28 57.13 C 85.90 56.57 86.47 57.11 85.99 58.76 C 84.38 59.30 83.81 58.76 84.28 57.13 Z" />
<path fill="#b42416" opacity="1.00" d=" M 31.89 58.89 C 36.58 58.83 41.27 58.84 45.96 58.90 C 45.92 61.58 45.90 64.26 45.92 66.95 C 41.25 66.99 36.57 67.01 31.90 66.99 C 31.90 64.29 31.90 61.59 31.89 58.89 M 34.49 60.72 C 34.18 61.05 33.55 61.71 33.24 62.04 C 36.98 62.33 40.74 62.49 44.49 62.24 C 44.25 61.86 43.77 61.11 43.53 60.73 C 40.53 60.47 37.49 60.43 34.49 60.72 M 33.17 63.83 C 34.40 65.92 38.41 66.11 39.52 63.82 C 37.41 63.67 35.28 63.66 33.17 63.83 Z" />
<path fill="#b42416" opacity="1.00" d=" M 47.81 58.89 C 56.61 58.76 65.41 58.90 74.21 58.93 C 74.24 65.78 74.11 72.62 74.31 79.47 C 63.71 79.73 53.10 79.66 42.50 79.57 C 42.59 76.06 42.59 72.55 42.55 69.04 C 44.31 68.95 46.06 68.87 47.82 68.76 C 47.83 65.47 47.82 62.18 47.81 58.89 M 55.24 60.36 C 48.61 62.72 47.47 72.73 53.59 76.34 C 59.01 80.50 67.46 75.60 67.26 68.98 C 67.53 62.95 60.92 58.06 55.24 60.36 M 67.29 60.30 C 66.11 61.77 68.64 63.44 69.60 61.89 C 70.67 60.45 68.22 58.68 67.29 60.30 M 67.66 63.93 C 67.12 65.53 67.68 66.11 69.32 65.66 C 69.85 64.07 69.30 63.49 67.66 63.93 M 71.07 63.97 C 70.59 65.62 71.15 66.15 72.75 65.56 C 73.24 63.90 72.68 63.37 71.07 63.97 Z" />
<path fill="#f9f0ef" opacity="1.00" d=" M 34.49 60.72 C 37.49 60.43 40.53 60.47 43.53 60.73 C 43.77 61.11 44.25 61.86 44.49 62.24 C 40.74 62.49 36.98 62.33 33.24 62.04 C 33.55 61.71 34.18 61.05 34.49 60.72 Z" />
<path fill="#f9f0ef" opacity="1.00" d=" M 55.24 60.36 C 60.92 58.06 67.53 62.95 67.26 68.98 C 67.46 75.60 59.01 80.50 53.59 76.34 C 47.47 72.73 48.61 62.72 55.24 60.36 M 51.90 66.03 C 50.35 69.03 52.00 72.25 53.85 74.66 C 54.91 73.46 56.19 72.48 57.30 71.32 C 58.45 70.35 60.52 69.84 60.03 67.92 C 57.67 65.40 56.44 69.44 54.84 70.85 C 53.38 67.30 57.92 63.17 60.82 66.18 C 63.04 68.05 61.56 70.65 60.02 72.37 C 61.06 73.03 62.09 73.72 63.11 74.42 C 65.73 71.48 66.41 66.43 63.17 63.67 C 59.94 60.23 53.52 61.59 51.90 66.03 M 55.58 75.91 C 57.50 75.95 59.42 75.91 61.33 75.80 C 60.38 73.25 56.30 73.11 55.58 75.91 Z" />
<path fill="#f9f0ef" opacity="1.00" d=" M 67.29 60.30 C 68.22 58.68 70.67 60.45 69.60 61.89 C 68.64 63.44 66.11 61.77 67.29 60.30 Z" />
<path fill="#f9f0ef" opacity="1.00" d=" M 84.23 60.39 C 85.88 59.85 86.45 60.38 85.93 61.98 C 84.26 62.51 83.69 61.98 84.23 60.39 Z" />
<path fill="#b42416" opacity="1.00" d=" M 51.90 66.03 C 53.52 61.59 59.94 60.23 63.17 63.67 C 66.41 66.43 65.73 71.48 63.11 74.42 C 62.09 73.72 61.06 73.03 60.02 72.37 C 61.56 70.65 63.04 68.05 60.82 66.18 C 57.92 63.17 53.38 67.30 54.84 70.85 C 56.44 69.44 57.67 65.40 60.03 67.92 C 60.52 69.84 58.45 70.35 57.30 71.32 C 56.19 72.48 54.91 73.46 53.85 74.66 C 52.00 72.25 50.35 69.03 51.90 66.03 Z" />
<path fill="#f9f0ef" opacity="1.00" d=" M 33.17 63.83 C 35.28 63.66 37.41 63.67 39.52 63.82 C 38.41 66.11 34.40 65.92 33.17 63.83 Z" />
<path fill="#f9f0ef" opacity="1.00" d=" M 67.66 63.93 C 69.30 63.49 69.85 64.07 69.32 65.66 C 67.68 66.11 67.12 65.53 67.66 63.93 Z" />
<path fill="#f9f0ef" opacity="1.00" d=" M 71.07 63.97 C 72.68 63.37 73.24 63.90 72.75 65.56 C 71.15 66.15 70.59 65.62 71.07 63.97 Z" />
<path fill="#f9f0ef" opacity="1.00" d=" M 81.07 63.93 C 82.69 63.39 83.23 63.95 82.70 65.59 C 81.09 66.13 80.55 65.57 81.07 63.93 Z" />
<path fill="#f9f0ef" opacity="1.00" d=" M 84.22 63.97 C 85.87 63.46 86.44 64.01 85.93 65.62 C 84.29 66.11 83.72 65.56 84.22 63.97 Z" />
<path fill="#b42416" opacity="1.00" d=" M 39.13 69.00 C 39.58 68.99 40.48 68.98 40.93 68.98 C 40.85 72.73 41.03 76.50 40.68 80.25 C 40.31 79.95 39.56 79.34 39.19 79.04 C 39.03 75.70 39.22 72.35 39.13 69.00 Z" />
<path fill="#f9f0ef" opacity="1.00" d=" M 81.45 68.34 C 84.36 69.38 87.28 70.44 90.14 71.62 C 89.65 72.11 88.67 73.07 88.18 73.55 C 88.65 74.40 90.67 76.58 88.66 76.58 C 88.17 76.24 87.20 75.56 86.71 75.22 C 86.23 75.64 85.26 76.49 84.78 76.92 C 83.27 74.23 82.54 71.21 81.45 68.34 M 84.42 71.37 C 83.35 72.62 85.26 74.74 86.54 73.51 C 87.88 72.27 85.65 70.29 84.42 71.37 Z" />
<path fill="#b42416" opacity="1.00" d=" M 84.42 71.37 C 85.65 70.29 87.88 72.27 86.54 73.51 C 85.26 74.74 83.35 72.62 84.42 71.37 Z" />
<path fill="#b42416" opacity="1.00" d=" M 55.58 75.91 C 56.30 73.11 60.38 73.25 61.33 75.80 C 59.42 75.91 57.50 75.95 55.58 75.91 Z" />
<path fill="#b42416" opacity="1.00" d=" M 34.64 82.86 C 35.28 80.90 37.45 81.60 38.98 81.44 C 53.33 81.60 67.69 81.33 82.04 81.56 C 81.21 83.64 78.76 82.89 77.01 83.09 C 62.89 82.96 48.75 83.38 34.64 82.86 Z" />
</svg>
