<?xml version="1.0" encoding="UTF-8" ?>
<!DOCTYPE svg PUBLIC "-//W3C//DTD SVG 1.1//EN" "http://www.w3.org/Graphics/SVG/1.1/DTD/svg11.dtd">
<svg width="170pt" height="175pt" viewBox="0 0 120 124" version="1.1" xmlns="http://www.w3.org/2000/svg">
<path fill="#f0f0f0" opacity="0.94" d=" M 19.51 0.00 L 23.37 0.00 C 28.87 0.69 33.81 3.95 36.73 8.63 C 40.98 16.00 39.16 26.19 32.29 31.32 C 25.92 36.52 16.15 36.09 9.96 30.80 C 4.89 26.21 2.55 18.68 4.83 12.12 C 6.79 5.62 12.85 0.90 19.51 0.00 M 17.41 2.56 C 9.20 4.64 3.89 14.16 6.76 22.21 C 9.11 30.12 18.42 35.05 26.25 32.24 C 34.12 29.87 39.02 20.60 36.24 12.79 C 33.95 5.12 25.12 0.21 17.41 2.56 Z" />
<path fill="#b42416" opacity="1.00" d=" M 17.41 2.56 C 25.12 0.21 33.95 5.12 36.24 12.79 C 39.02 20.60 34.12 29.87 26.25 32.24 C 18.42 35.05 9.11 30.12 6.76 22.21 C 3.89 14.16 9.20 4.64 17.41 2.56 M 19.18 16.63 C 20.69 16.05 22.13 15.11 23.80 15.14 C 24.83 17.36 22.53 17.99 20.93 18.53 C 22.07 18.90 23.16 19.38 24.21 19.95 C 24.31 23.59 20.74 20.94 19.04 20.12 C 19.61 21.09 20.20 22.05 20.80 23.00 C 21.66 23.02 23.38 23.06 24.24 23.08 C 25.45 21.73 25.92 20.14 25.17 18.41 C 25.90 16.60 25.36 13.79 22.92 13.97 C 20.99 13.51 19.80 15.06 19.18 16.63 Z" />
<path fill="#b42416" opacity="1.00" d=" M 36.73 8.63 C 56.00 0.51 79.40 3.25 96.02 16.03 C 110.07 26.43 118.92 43.21 120.00 60.62 L 120.00 67.30 C 119.04 82.11 112.66 96.55 101.95 106.88 C 91.72 117.04 77.73 123.03 63.39 124.00 L 56.74 124.00 C 41.90 123.06 27.44 116.66 17.09 105.92 C 6.95 95.69 0.96 81.69 0.00 67.36 L 0.00 60.77 C 0.71 50.13 4.13 39.73 9.96 30.80 C 16.15 36.09 25.92 36.52 32.29 31.32 C 39.16 26.19 40.98 16.00 36.73 8.63 M 59.24 34.27 C 57.02 35.19 56.41 38.22 58.41 39.73 C 60.52 41.77 63.82 39.72 64.07 37.12 C 63.59 35.08 61.37 33.16 59.24 34.27 M 48.04 39.01 C 46.65 40.89 48.84 42.67 49.94 44.02 C 49.95 45.70 49.95 47.38 49.94 49.07 C 51.32 50.27 52.51 52.39 54.67 51.64 C 52.62 49.55 51.49 47.01 51.97 44.05 C 53.01 42.67 55.34 40.92 53.91 39.04 C 52.86 36.58 49.14 36.61 48.04 39.01 M 67.06 39.12 C 65.98 41.13 68.03 42.63 69.09 44.06 C 69.08 45.50 69.06 46.94 69.02 48.38 C 67.88 49.59 66.14 50.81 67.65 52.52 C 68.83 51.36 70.00 50.17 71.16 48.98 C 71.13 47.35 71.11 45.71 71.08 44.07 C 72.17 42.73 74.43 41.04 73.11 39.13 C 72.05 36.54 68.21 36.64 67.06 39.12 M 59.41 43.10 C 58.30 44.53 60.73 46.36 61.70 44.75 C 62.82 43.31 60.41 41.55 59.41 43.10 M 59.53 46.68 C 59.51 47.12 59.48 47.99 59.46 48.42 C 60.01 48.41 61.12 48.39 61.67 48.37 C 61.64 47.95 61.58 47.10 61.55 46.68 C 61.05 46.68 60.04 46.68 59.53 46.68 M 53.80 54.98 C 51.73 58.46 53.93 62.31 56.55 64.74 C 56.53 70.19 56.49 75.64 56.58 81.09 C 53.80 79.97 50.90 78.70 47.82 79.02 C 45.33 79.18 43.23 82.27 44.60 84.56 C 46.36 87.77 50.86 86.42 53.39 88.68 C 56.06 90.31 55.56 94.46 58.66 95.58 C 58.31 92.22 57.08 88.72 54.11 86.83 C 51.80 85.02 48.52 85.50 46.18 83.82 C 45.60 82.44 46.56 81.20 47.94 80.97 C 51.71 80.63 55.04 82.65 58.32 84.18 C 58.72 75.43 58.28 66.66 58.70 57.92 C 58.58 55.87 61.79 55.41 62.37 57.38 C 62.88 62.77 62.38 68.21 62.83 73.62 C 64.19 72.51 65.05 70.51 66.88 70.12 C 68.35 70.49 68.70 72.34 69.66 73.32 C 70.48 72.27 71.19 71.12 72.12 70.15 C 74.07 69.86 74.66 72.13 75.88 73.17 C 76.87 72.05 77.76 70.85 78.74 69.72 C 79.26 70.10 80.31 70.87 80.84 71.25 C 80.88 79.16 80.87 87.07 80.87 94.99 C 81.38 94.96 82.41 94.90 82.92 94.87 C 82.68 86.97 83.15 79.06 82.65 71.18 C 81.96 67.99 78.24 67.93 75.83 69.08 C 73.84 68.29 71.74 68.29 69.74 69.04 C 68.00 68.61 66.22 68.45 64.45 68.29 C 64.48 67.41 64.54 65.65 64.57 64.77 C 67.21 62.27 69.43 58.31 67.21 54.80 C 64.67 49.45 56.20 49.58 53.80 54.98 M 37.43 55.53 C 33.40 57.87 38.51 63.84 41.57 60.50 C 44.86 58.07 40.42 53.01 37.43 55.53 M 80.31 55.28 C 78.62 56.03 77.68 58.46 79.05 59.93 C 80.38 62.36 84.39 61.59 84.98 58.98 C 85.79 56.42 82.61 53.85 80.31 55.28 M 45.21 57.32 C 44.66 58.95 45.20 59.51 46.85 59.00 C 47.38 57.36 46.84 56.80 45.21 57.32 M 48.69 57.24 C 47.54 58.63 49.89 60.45 50.97 59.00 C 52.16 57.62 49.74 55.75 48.69 57.24 M 70.18 57.30 C 68.93 58.70 71.39 60.51 72.41 58.97 C 73.58 57.57 71.19 55.71 70.18 57.30 M 74.20 57.30 C 73.64 58.93 74.19 59.50 75.83 59.00 C 76.37 57.37 75.83 56.80 74.20 57.30 Z" />
<path fill="#ffffff" opacity="1.00" d=" M 19.18 16.63 C 19.80 15.06 20.99 13.51 22.92 13.97 C 25.36 13.79 25.90 16.60 25.17 18.41 C 25.92 20.14 25.45 21.73 24.24 23.08 C 23.38 23.06 21.66 23.02 20.80 23.00 C 20.20 22.05 19.61 21.09 19.04 20.12 C 20.74 20.94 24.31 23.59 24.21 19.95 C 23.16 19.38 22.07 18.90 20.93 18.53 C 22.53 17.99 24.83 17.36 23.80 15.14 C 22.13 15.11 20.69 16.05 19.18 16.63 Z" />
<path fill="#ffffff" opacity="1.00" d=" M 59.24 34.27 C 61.37 33.16 63.59 35.08 64.07 37.12 C 63.82 39.72 60.52 41.77 58.41 39.73 C 56.41 38.22 57.02 35.19 59.24 34.27 M 59.39 36.34 C 57.86 37.71 60.41 39.70 61.66 38.36 C 63.23 36.99 60.63 34.88 59.39 36.34 Z" />
<path fill="#b42416" opacity="1.00" d=" M 59.39 36.34 C 60.63 34.88 63.23 36.99 61.66 38.36 C 60.41 39.70 57.86 37.71 59.39 36.34 Z" />
<path fill="#ffffff" opacity="1.00" d=" M 48.04 39.01 C 49.14 36.61 52.86 36.58 53.91 39.04 C 55.34 40.92 53.01 42.67 51.97 44.05 C 51.49 47.01 52.62 49.55 54.67 51.64 C 52.51 52.39 51.32 50.27 49.94 49.07 C 49.95 47.38 49.95 45.70 49.94 44.02 C 48.84 42.67 46.65 40.89 48.04 39.01 M 48.84 40.07 C 49.76 40.77 50.57 41.79 51.83 41.81 C 52.07 41.12 52.25 40.42 52.37 39.70 C 51.24 38.71 49.98 39.66 48.84 40.07 Z" />
<path fill="#ffffff" opacity="1.00" d=" M 67.06 39.12 C 68.21 36.64 72.05 36.54 73.11 39.13 C 74.43 41.04 72.17 42.73 71.08 44.07 C 71.11 45.71 71.13 47.35 71.16 48.98 C 70.00 50.17 68.83 51.36 67.65 52.52 C 66.14 50.81 67.88 49.59 69.02 48.38 C 69.06 46.94 69.08 45.50 69.09 44.06 C 68.03 42.63 65.98 41.13 67.06 39.12 M 69.14 39.35 C 67.58 40.64 69.91 42.94 71.26 41.54 C 72.77 40.25 70.49 38.01 69.14 39.35 Z" />
<path fill="#b42416" opacity="1.00" d=" M 48.84 40.07 C 49.98 39.66 51.24 38.71 52.37 39.70 C 52.25 40.42 52.07 41.12 51.83 41.81 C 50.57 41.79 49.76 40.77 48.84 40.07 Z" />
<path fill="#b42416" opacity="1.00" d=" M 69.14 39.35 C 70.49 38.01 72.77 40.25 71.26 41.54 C 69.91 42.94 67.58 40.64 69.14 39.35 Z" />
<path fill="#ffffff" opacity="1.00" d=" M 59.41 43.10 C 60.41 41.55 62.82 43.31 61.70 44.75 C 60.73 46.36 58.30 44.53 59.41 43.10 Z" />
<path fill="#ffffff" opacity="1.00" d=" M 59.53 46.68 C 60.04 46.68 61.05 46.68 61.55 46.68 C 61.58 47.10 61.64 47.95 61.67 48.37 C 61.12 48.39 60.01 48.41 59.46 48.42 C 59.48 47.99 59.51 47.12 59.53 46.68 Z" />
<path fill="#ffffff" opacity="1.00" d=" M 53.80 54.98 C 56.20 49.58 64.67 49.45 67.21 54.80 C 69.43 58.31 67.21 62.27 64.57 64.77 C 64.54 65.65 64.48 67.41 64.45 68.29 C 66.22 68.45 68.00 68.61 69.74 69.04 C 71.74 68.29 73.84 68.29 75.83 69.08 C 78.24 67.93 81.96 67.99 82.65 71.18 C 83.15 79.06 82.68 86.97 82.92 94.87 C 82.41 94.90 81.38 94.96 80.87 94.99 C 80.87 87.07 80.88 79.16 80.84 71.25 C 80.31 70.87 79.26 70.10 78.74 69.72 C 77.76 70.85 76.87 72.05 75.88 73.17 C 74.66 72.13 74.07 69.86 72.12 70.15 C 71.19 71.12 70.48 72.27 69.66 73.32 C 68.70 72.34 68.35 70.49 66.88 70.12 C 65.05 70.51 64.19 72.51 62.83 73.62 C 62.38 68.21 62.88 62.77 62.37 57.38 C 61.79 55.41 58.58 55.87 58.70 57.92 C 58.28 66.66 58.72 75.43 58.32 84.18 C 55.04 82.65 51.71 80.63 47.94 80.97 C 46.56 81.20 45.60 82.44 46.18 83.82 C 48.52 85.50 51.80 85.02 54.11 86.83 C 57.08 88.72 58.31 92.22 58.66 95.58 C 55.56 94.46 56.06 90.31 53.39 88.68 C 50.86 86.42 46.36 87.77 44.60 84.56 C 43.23 82.27 45.33 79.18 47.82 79.02 C 50.90 78.70 53.80 79.97 56.58 81.09 C 56.49 75.64 56.53 70.19 56.55 64.74 C 53.93 62.31 51.73 58.46 53.80 54.98 M 56.29 62.01 C 56.52 58.97 56.54 53.91 60.89 54.30 C 64.96 54.57 64.34 59.36 64.89 62.23 C 67.49 58.74 65.64 52.85 60.96 52.76 C 56.10 52.08 53.07 58.46 56.29 62.01 Z" />
<path fill="#b42416" opacity="1.00" d=" M 56.29 62.01 C 53.07 58.46 56.10 52.08 60.96 52.76 C 65.64 52.85 67.49 58.74 64.89 62.23 C 64.34 59.36 64.96 54.57 60.89 54.30 C 56.54 53.91 56.52 58.97 56.29 62.01 Z" />
<path fill="#ffffff" opacity="1.00" d=" M 37.43 55.53 C 40.42 53.01 44.86 58.07 41.57 60.50 C 38.51 63.84 33.40 57.87 37.43 55.53 M 38.22 57.17 C 36.77 58.55 39.19 60.68 40.47 59.26 C 41.92 57.90 39.49 55.72 38.22 57.17 Z" />
<path fill="#ffffff" opacity="1.00" d=" M 80.31 55.28 C 82.61 53.85 85.79 56.42 84.98 58.98 C 84.39 61.59 80.38 62.36 79.05 59.93 C 77.68 58.46 78.62 56.03 80.31 55.28 M 80.33 57.43 C 80.69 58.39 81.09 59.33 81.53 60.26 C 82.15 59.29 83.28 58.45 83.12 57.14 C 82.42 57.21 81.03 57.36 80.33 57.43 Z" />
<path fill="#b42416" opacity="1.00" d=" M 38.22 57.17 C 39.49 55.72 41.92 57.90 40.47 59.26 C 39.19 60.68 36.77 58.55 38.22 57.17 Z" />
<path fill="#f4dfdd" opacity="1.00" d=" M 45.21 57.32 C 46.84 56.80 47.38 57.36 46.85 59.00 C 45.20 59.51 44.66 58.95 45.21 57.32 Z" />
<path fill="#ffffff" opacity="1.00" d=" M 48.69 57.24 C 49.74 55.75 52.16 57.62 50.97 59.00 C 49.89 60.45 47.54 58.63 48.69 57.24 Z" />
<path fill="#ffffff" opacity="1.00" d=" M 70.18 57.30 C 71.19 55.71 73.58 57.57 72.41 58.97 C 71.39 60.51 68.93 58.70 70.18 57.30 Z" />
<path fill="#f5e1e0" opacity="1.00" d=" M 74.20 57.30 C 75.83 56.80 76.37 57.37 75.83 59.00 C 74.19 59.50 73.64 58.93 74.20 57.30 Z" />
<path fill="#b42416" opacity="1.00" d=" M 80.33 57.43 C 81.03 57.36 82.42 57.21 83.12 57.14 C 83.28 58.45 82.15 59.29 81.53 60.26 C 81.09 59.33 80.69 58.39 80.33 57.43 Z" />
</svg>
