<?xml version="1.0" encoding="UTF-8" ?>
<!DOCTYPE svg PUBLIC "-//W3C//DTD SVG 1.1//EN" "http://www.w3.org/Graphics/SVG/1.1/DTD/svg11.dtd">
<svg width="80pt" height="80pt" viewBox="0 0 80 80" version="1.1" xmlns="http://www.w3.org/2000/svg">
<path fill="#2a2a2a" opacity="0.70" d=" M 36.61 0.00 L 43.13 0.00 C 52.49 1.01 61.62 4.91 68.25 11.69 C 74.96 18.24 78.89 27.24 80.00 36.49 L 80.00 43.33 C 78.87 54.05 73.65 64.39 65.12 71.10 C 59.00 76.24 51.25 78.99 43.40 80.00 L 36.82 80.00 C 28.67 79.06 20.65 76.09 14.38 70.69 C 6.17 64.02 1.20 53.94 0.00 43.51 L 0.00 36.71 C 0.97 28.09 4.37 19.66 10.28 13.23 C 16.96 5.64 26.63 1.16 36.61 0.00 M 33.41 3.60 C 19.72 5.94 7.94 16.72 4.36 30.13 C 1.38 40.60 3.40 52.37 9.73 61.22 C 18.01 73.31 33.84 79.51 48.11 76.10 C 59.68 73.55 69.71 65.07 74.20 54.12 C 78.24 44.45 77.88 33.06 73.20 23.69 C 66.27 9.18 49.23 0.43 33.41 3.60 Z" />
<path fill="#2a2a2a" opacity="0.70" d=" M 29.34 39.58 C 35.57 33.44 41.69 27.18 47.89 21.01 C 48.42 21.54 49.47 22.59 50.00 23.12 C 44.24 28.93 38.45 34.72 32.68 40.52 C 38.38 46.36 44.20 52.08 49.93 57.90 C 49.41 58.42 48.36 59.47 47.84 60.00 C 41.66 53.84 35.55 47.60 29.34 41.47 C 29.34 41.00 29.34 40.05 29.34 39.58 Z" />
</svg>
