<?xml version="1.0" encoding="UTF-8" ?>
<!DOCTYPE svg PUBLIC "-//W3C//DTD SVG 1.1//EN" "http://www.w3.org/Graphics/SVG/1.1/DTD/svg11.dtd">
<svg width="80pt" height="80pt" viewBox="0 0 80 80" version="1.1" xmlns="http://www.w3.org/2000/svg">
<path fill="#2a2a2a" opacity="0.70" d=" M 36.69 0.00 L 43.06 0.00 C 52.93 1.01 62.53 5.35 69.26 12.73 C 75.42 19.20 78.98 27.80 80.00 36.61 L 80.00 43.22 C 78.91 54.00 73.66 64.39 65.09 71.12 C 58.95 76.26 51.18 79.02 43.30 80.00 L 36.91 80.00 C 27.98 79.05 19.28 75.48 12.74 69.25 C 5.42 62.60 1.08 53.12 0.00 43.35 L 0.00 36.82 C 0.93 28.17 4.34 19.71 10.26 13.26 C 16.96 5.63 26.67 1.12 36.69 0.00 M 33.36 3.61 C 19.69 5.97 7.92 16.75 4.36 30.16 C 1.38 40.63 3.40 52.39 9.74 61.23 C 18.03 73.32 33.86 79.51 48.13 76.09 C 59.45 73.59 69.30 65.42 73.90 54.80 C 78.25 45.01 77.99 33.33 73.22 23.74 C 66.30 9.19 49.22 0.41 33.36 3.61 Z" />
<path fill="#2a2a2a" opacity="0.70" d=" M 30.07 22.10 C 30.59 21.58 31.63 20.53 32.16 20.01 C 38.35 26.18 44.47 32.41 50.68 38.56 C 50.67 39.03 50.66 39.97 50.65 40.44 C 44.42 46.57 38.31 52.82 32.11 58.99 C 31.58 58.46 30.53 57.41 30.00 56.88 C 35.76 51.06 41.57 45.30 47.32 39.46 C 41.59 33.65 35.81 27.90 30.07 22.10 Z" />
</svg>
